<svg width="767" height="602" version="1.1" viewBox="92 200 767 602" xmlns="http://www.w3.org/2000/svg"><!-- Created by github.com/MY1L -->
<g>
<path d="m283 585c-17 15-7 51 21 51 42 0 65-26 69-86 6-80-43-170-44-205-2-55 19-83 50-83 51-1 54 38 51 66-3 42-42 43-50 13-10-6-13 13-15 22 33 60 61 176 62 267 1 51-12 150-30 150-20 0-21-30-6-80 14-50 45-80 76-80s35 23 33 43l10 4c26-18 1-61-34-62-45-2-91 40-103 88-17 60-4 109 26 109 40 0 69-73 74-162 4-100-14-223-98-280h-5c45 73 103 20 99-39-1-48-31-84-95-76-39 4-89 34-85 117 3 72 46 164 46 203 0 35-10 54-30 52-9-1-14-10-8-27z"/>
<path d="m769 269c-7 31 36 24 43 3 9-25-14-53-44-52-104 2-96 127-92 204 6 120-14 206-70 205-4 0-7 11-7 11 20 19 41-2 62-3 53-3 113 19 160-7 19-10 37-33 37-53 0-35-43-45-53-25l6 10c8-8 19 1 20 8 2 16-17 25-30 30-26 9-74-1-104 9s-52 18-86 21l-9 9c64 4 125-61 118-213-4-66-29-185 49-190 10-1 22 9 22 20 0 7-5 15-11 10z"/>
<path d="m134 330c-12-5-19-37 15-66 33-28 108-17 143-17 34 0 81-7 75-44l-11-2c0 13-20 21-60 19-29-1-101-27-163 20-52.1 40-35.8 132 2 101z"/>
<path d="m181 248c30 64 48 159 45 224-3 64-27 148-67 147-20 0-31-21-30-59 1-37 25-94 49-90 5 0 8 15-7 18l2 9c44 5 45-58 9-56-50 3-88.5 69-89.6 120-1.1 43 7.3 83 65.6 84 57 0 96-94 99-169 4-99 8-243-64-236z"/>
<path d="m483 297c33 23-2 37 2 175 1 82 22 128 79 126 42 0 78-66 77-148 0-62-13-174 6-180l-9-8c-78 67-26 95-25 198 0 68-25 103-46 103-13 1-38-28-38-92 0-125 65-167-33-188z"/>
<path d="m552 460c56-37 178 6 208-4 0 0 26-12 46-41l-6-14c-21 19-49 27-49 27-67 10-156-11-206 24z"/>
</g>
</svg>