<svg width="455" height="475" version="1.1" viewBox="0 0 455 475" xmlns="http://www.w3.org/2000/svg">
<g transform="matrix(9.8421 0 0 9.8421 -835.46 -571.56)" stroke-linecap="round" stroke-linejoin="round">
<path transform="matrix(.27518 0 0 .27518 -5.0733 -3.2751)" d="m486.12 361.98h-150.56l75.278-130.38z" fill="none" stroke="#efdb33" stroke-width="17.307" style="paint-order:fill markers stroke"/>
<path transform="matrix(.27518 0 0 .27518 -5.0733 -3.2751)" d="m486.12 361.98h-150.56l75.278-130.38z" fill="#efdb33" fill-rule="evenodd" stroke="#000" stroke-width="12.571" style="paint-order:fill markers stroke"/>
</g>
<g stroke="#000">
<path d="m199.99 339.62c-1.7166 1.4668 11.697 5.3704 19.299 3.7285-3.7986-0.62336-13.843-2.6244-19.299-3.7285z" stroke-linecap="round" stroke-linejoin="round"/>
<path d="m153.83 312.36c-9e-3 -2e-3 -0.0239-1e-3 -0.041 2e-3 -3.2423 0.53516-13.208 6.1078-15.408 8.5508-0.21012 0.61147-0.0312 1.0158 0.39844 0.89844 1.3988-0.38203 15.648-9.3442 15.051-9.4512z"/>
<path d="m233.01 148.26c-6.6345-0.23459-13.446 0.75686-19.695 2.625-6.3759 2.0454-12.295 5.5115-17.143 10.137 0.83433 8.9875 3.947 18.831 2.9766 28.438 0.12506 11.46-10.692 17.495-15.348 27.002-3.7236 6.3884-8.0701 12.679-15.596 6.5117-11.648-3.9082-24.435 3.2536-29.865 13.752-6.2954 8.6026-7.4526 19.389-9.8867 29.348-3.609 9.9113-23.473 26.677-19.982 37.66 2.7055 1.5472 1.8672-8.5666 5.5711 1.4813 1.1793 3.1993 16.008 11.624 5.2629 3.5152-18.728-20.365 8.4647-27.918 22.301-35.604-4.1076-0.93001-29.388 15.621-13.777-1.3086 6.0885-12.484 6.2095-27.878 16.238-38.441 4.8257-8.5958 15.284-9.7734 22.721-3.8184 6.3522 3.9886 10.099 10.664 14.475 16.516-4.0431-8.5674-9.6632-17.813-18.236-21.508 6.7393-1.1843 14.466 9.7269 17.777 0.58007 4.8571-6.2136 8.3268-13.7 14.535-18.686 5.1532 5.3256-3.148 16.86-4.1797 24.188-5.5435 14.327-9.3686 29.186-13.211 44.033-1.5347 6.0418-7.3694 13.029-9.4081 16.022-6.5136-6.2624-13.797-18.356-0.97834 3.7346 5.7916 8.4711 2.903 18.792-2.5686 26.722-2.3044 5.6568-11.139 20.058-6.1562 19.217 2.7638-0.46676 7.1333-19.275 13.822-25.342-17.452 20.583 25.241 29.27 22.232 24.186-10.028 0.0227-26.941-8.4093-23.66-17.695 3.226-9.1316 36.946-11.421 45.713-11.031 3.4535-3.2975-28.407-0.37942-37.945 1.9805 8.3555-4.929 11.752-14.304 19.617-19.652 12.193-7.8186 26.739-13.714 41.453-10.826 11.091-0.11268 20.428-2.152 30.869-5.6546 4.0768-9.8037 3.1743-23.114 0.3123-33.33-4.3404-9.5241-18.499-12.037-26.014-4.3281 6.0291-2.8976 17.695-5.0932 22.188 4.1445 4.2098 5.1868 7.8823 23.373 3.3184 29.973-3.4841 5.0389-14.842 5.4232-22.289 6.4524-8.703 1.2028-19.212 0.48511-26.336-1.0625 7.5357-6.5595 10.654-16.629 12.727-26.076 1.9445-8.8634 9.9202-23.934 12.664-29.289-10.696 9.9112-3.376 2.5108-4.5052-4.4767-1.2741-7.8838 5.8617-7.8561 2.04-23.871-2.5114-14.631-0.24513-29.633-0.43946-44.395-3.6955-1.0995-7.613-1.6815-11.594-1.8223zm78.162 29.805c-0.42418-3e-3 -1.475 1.0362-3.3613 3.7324-6.0364 8.6278-14.006 19.659-14.309 31.586 0.78311 4.5554 3.8514 12.181-1.0078 4.0918-5.3337-7.1675-13.336-15.295-22.29-15.014-7.3799 0.23156-11.84 5.924-17.56 13.502 5.2742-3.7399 11.21-10.4 18.143-10.186 8.9889 0.2784 23.846 11.186 25.803 22.408 1.7404 9.9838-3.6686 20.465-8.1504 29.242-4.6665 18.993-9.9281 37.857-16.539 56.248-5.5379 15.406-9.6557 18.622-9.4375 22.084 8.584-5.1156 10.239-17.293 13.99-26.574 6.222-15.394 8.9851-31.973 13.939-47.82 2.7513-8.8004 7.9793-17.049 8.7637-26.236 0.57776-6.7673-2.3441-13.248-3.0859-20.141-1.0817-10.05 6.7392-23.02 11.002-28.258 2.9306-3.6008 5.0328-8.6593 4.0996-8.666z" stroke-linecap="round" stroke-linejoin="round"/>
</g>
<g transform="translate(-5.4056 17.2)" style="inline-size:363.749;white-space:pre" aria-label="当 心 夹 脚">
<path d="m91.223 448.44h43.418v-6.9629h-40.781v-7.2656h40.781v-6.7656h-42.656v-7.2656h21.563v-21.562h8.6719v21.562h21.094v36.738h-8.6719v-1.2129h-43.418zm7.9102-47.42 11.484 12.012-6.3867 5.625c-3.7109-4.6094-7.2852-8.7109-10.723-12.305zm37.617 0.0586 6.5625 5.5078-12.07 12.188-6.0352-5.3906c4.375-4.2188 8.2227-8.3203 11.543-12.305z"/>
<path d="m195.29 398.56q5.0976 6.4453 10.957 15.234l-7.793 4.8047q-4.9805-8.9648-9.9024-15.879zm10.898 37.09q5.2734 2.168 8.8477 3.3398-0.41016 2.7832-1.5234 7.4707-1.084 4.6582-2.5781 6.0352-1.4941 1.377-3.75 2.0508-2.2266 0.67382-5.3906 0.67382h-9.6094q-9.8438 0-9.8438-9.9609v-33.75h8.6719v31.055q0 5.0391 5.2148 5.0391h2.9883q2.6367 0 4.1016-0.87891 1.4648-0.9082 1.8164-2.6074 0.35156-1.7285 1.0547-8.4668zm-33.105-20.098 8.0274 1.8164q-2.5195 13.945-6.5625 25.84l-7.793-2.8711q3.3398-10.664 6.3281-24.785zm43.887 0.9375q4.6875 9.6094 8.2031 19.277l-8.0859 3.3398q-3.2812-9.5508-7.9102-19.453z"/>
<path d="m245.79 428.09h13.242q-4.5117-5.5371-8.6719-9.9024l4.9219-4.3359h-8.0274v-7.6172h22.09l0.0586-7.0312h8.5547q0.0293 3.6914 0.0293 7.0312h22.236v7.6172h-9.7266l5.7422 4.3359q-4.4238 4.7754-10.137 9.9024h15.586v7.6172h-21.24q5.127 10.02 22.061 12.891-1.7578 2.3438-5.2734 7.9688-16.875-3.1055-23.584-17.256-5.2441 12.07-23.525 17.725-2.168-3.6328-5.2734-7.7344 18.34-5.332 21.621-13.594h-20.684zm19.277-4.8047-5.7715 4.8047h9.2285q0.76172-6.1524 0.76172-14.238h-13.359q4.1016 3.8379 9.1406 9.4336zm24.902-9.4336h-12.012q-0.0879 8.3203-0.46875 14.238h8.4961l-5.3906-4.9219q5.1855-4.9512 9.375-9.3164z"/>
<path d="m342.71 422.58h5.6836v-7.0898h-4.8633v-6.6211h4.8633v-9.668h6.7969v9.668h4.5703v6.6211h-4.5703v7.0898h5.2734v6.6211h-5.918l-1.2891 3.8086 3.1055-1.0547 5.2734 12.949v-42.363h16.816v41.25q0 2.7832-0.9668 4.3066-0.9375 1.4941-2.6074 1.7285-1.6406 0.26367-5.0391 0.41015-0.46875-2.0215-1.582-5.4785v12.041h-6.6211v-5.8887l-3.6328 1.4356-0.84961-2.4902q-9.6094 0.9082-13.564 1.9629l-2.0508-4.6289v2.168q0 2.7539-0.9961 4.3066-0.99609 1.5527-2.9883 1.9043-1.9922 0.38086-5.7422 0.29296-0.58593-3.1348-1.4648-6.8555-1.0547 4.1894-3.0469 7.8516-2.0508-2.6953-4.8633-6.0352 2.168-5.3906 2.6953-11.396 0.52734-6.0352 0.46875-18.662v-19.395h15.938v43.213q3.252-5.0684 6.2695-15.381h-5.0977zm-7.4414-13.828h-3.3984v8.0273h3.3984zm34.922 34.043q1.6406 0 1.6406-2.5781v-30.527h-3.5742v33.105zm-38.379-11.836h3.457v-7.2656h-3.3984q0 1.875-0.0586 7.2656zm16.934 13.594 6.3867-0.38086q-1.4648-4.1016-2.9883-8.0566-1.6992 4.5996-3.3984 8.4375zm-17.109-6.6797q-0.26367 7.4707-1.084 10.4 2.2266 0.14649 2.7832 0.14649 1.9336 0 1.9336-2.7539v-7.793z"/>
</g>
<g stroke="#000" stroke-linecap="round">
<path d="m108.65 302.58c-11.031 6.5054-5.1306 16.986-0.45864 23.114 10.533 13.816 38.36 28.646 50.522 12.807" fill="none" stop-color="#000000" stroke-width="4" style="font-variation-settings:normal"/>
<path d="m180.67 309.18c-30.929 22.456-11.044 46.714 49.601 40.915 24.294-2.323 34.79-18.385 34.79-18.385" fill="none" stop-color="#000000" stroke-width="4" style="font-variation-settings:normal"/>
<path d="m238.4 205.8c-1 13.2 22.623-44.452 25-56.8z" stop-color="#000000" stroke-linejoin="round" stroke-width=".787" style="font-variation-settings:normal"/>
</g>
</svg>
